<?xml version="1.0" encoding="UTF-8"?>
<svg id="_レイヤー_2" data-name="レイヤー 2" xmlns="http://www.w3.org/2000/svg" viewBox="0 0 176.28 90.73">
  <defs>
    <style>
      .cls-1 {
        fill: #61351a;
      }

      .cls-2 {
        fill: #826c5c;
      }

      .cls-3 {
        fill: #785e4b;
      }

      .cls-4 {
        fill: #585553;
      }

      .cls-5 {
        fill: #45220e;
      }

      .cls-6 {
        fill: #6c5f55;
      }

      .cls-7 {
        fill: #6c635a;
      }

      .cls-8 {
        fill: #5a3b26;
      }

      .cls-9 {
        fill: #60544b;
      }

      .cls-10 {
        fill: #fff;
      }

      .cls-11 {
        fill: #836654;
      }

      .cls-12 {
        fill: #83614d;
      }

      .cls-13 {
        fill: #6a5646;
      }

      .cls-14 {
        fill: #655245;
      }

      .cls-15 {
        fill: #7c5e49;
      }

      .cls-16 {
        fill: #746558;
      }
    </style>
  </defs>
  <g id="_レイヤー_1-2" data-name="レイヤー 1">
    <g>
      <g id="_レイヤー_1-2" data-name=" レイヤー 1-2">
        <g id="_コーヒ豆.psd" data-name=" コーヒ豆.psd">
          <g>
            <path class="cls-7" d="M43.85,65.06l-.14-.27c5.82,1.93,11.3.74,16.42-2.39,1.86-1.14,3.4-2.59,5.04-4-4.66,5.98-14.09,9.27-21.33,6.66h0Z"/>
            <path class="cls-16" d="M70.61,40.34c1.26,4.5.34,10.37-2.45,14.13h-.14c1.17-2.56,2.49-4.89,2.71-7.82.02-.26.13-.55-.27-.47.14-1.11.45-2.31.28-3.61-.03-.27-.29-.14-.3-.39-.02-.64.22-1.02.01-1.84,0,0,.14,0,.14,0Z"/>
            <path class="cls-6" d="M33.26,42.1h-.14c.95-1.42,1.59-3.35,1.9-5.02.13-.04.13-.16.14-.27.02-.41.04-.95,0-1.36h.14c.17,2.82-.46,4.38-2.04,6.66Z"/>
            <path class="cls-6" d="M65.18,58.4c.81-1.04,1.73-2.22,2.58-3.26-.25.52-.55,1.02-.89,1.48-.51.69-1.08,1.25-1.69,1.78h0Z"/>
            <path class="cls-11" d="M12.48,13.98v.14c-.58-.04-1.47-.06-2.04,0v-.14c.63-.04,1.4-.02,2.04,0Z"/>
            <path class="cls-6" d="M68.17,54.47c-.07.1-.11.35-.27.54l-.13-.07c.05-.18.2-.33.27-.48h.14Z"/>
            <path class="cls-4" d="M35.3,32.73c-.22-.09-.22-.59,0-.68,0,.23,0,.45,0,.68Z"/>
            <g>
              <path class="cls-7" d="M13.29,45.36c6.46,2.48,15.34,3.47,19.83-3.26h.14c-3.39,4.9-8.65,6.25-14.43,5.26-1.84-.32-3.99-.98-5.54-2Z"/>
              <path class="cls-2" d="M32.58,24.72c1.67,1.77,2.64,4.79,2.72,7.33-.22.09-.22.59,0,.68.03.88-.06,1.76,0,2.72h-.14c-.03-.3-.11-.57-.14-.82-.09-1.02.03-1.67,0-2.65-.09-2.64-1.27-5.02-2.44-7.27h0Z"/>
              <path class="cls-11" d="M28.37,20.37c1.69,1.27,3.22,2.45,4.21,4.35-.7-.74-1.77-2.21-2.51-2.72-.33-.23-.76-.24-.89-.33-.06-.05-.35-.79-.81-1.16v-.14h0Z"/>
              <path class="cls-15" d="M10.44,13.98v.14c-.89.09-2.24.51-3.13.82-.1.03-.31-.04-.41,0v-.14c1.16-.46,2.29-.73,3.53-.82Z"/>
              <path class="cls-12" d="M28.37,20.37v.14c-.39-.31-1.33-.95-1.77-1.22v-.14c.7.45,1.12.74,1.77,1.22Z"/>
              <path class="cls-6" d="M43.72,64.79l.14.27c-.67-.24-1.46-.34-1.9-.95.51.22,1.23.5,1.77.68Z"/>
              <path class="cls-15" d="M13.57,14.12v.14c-.32-.04-.81-.12-1.09-.14v-.14c.44.01.77.11,1.09.14Z"/>
              <path class="cls-8" d="M35.03,37.07c.02-.11,0-.23.14-.27,0,.12,0,.23-.14.27Z"/>
              <g>
                <path class="cls-5" d="M66.81,34.77c.99.72,1.79,1.94,2.58,2.72.09.22.16.67.27.95-1.06-.28-2.88.03-3.82.59-.45.27-.83.74-1.21,1.1-4.15,3.94-9.12,7.31-14.05,10.26-2.7,1.62-5.28,2.51-7.9,3.92-2.09,1.12-3.9,2.82-2.13,5.17.81,1.08,4.12,2.06,5.45,2.29,9.29,1.62,23.23-5.47,24.48-15.59.4-.08.29.21.27.47-.22,2.93-1.54,5.25-2.71,7.82-.07.15-.22.3-.27.48l.13.07c-.04.05-.1.09-.14.14-.85,1.04-1.77,2.22-2.58,3.26-1.64,1.4-3.18,2.86-5.04,4-5.13,3.13-10.6,4.32-16.42,2.39-.53-.18-1.25-.46-1.77-.68-.04-.02-.1.02-.14,0-.08-.58-.95-.74-1.31-1-1.36-.98-2.76-2.98-3.44-4.57-1.02-2.37-.84-3.15-.82-5.57.31.45.03,2.39.95,1.97,1.23-1.16,2.42-2.39,3.67-3.54,2.55-2.34,5.19-4.9,8.2-6.61s6.53-3.11,9.69-4.84c1.08-.59,4.67-2.6,5.01-3.68.08-.27.2-1.61.21-1.98s-.12-.67-.15-1.02c.69.18,2.41,1.07,2.99,1.49h0Z"/>
                <path class="cls-13" d="M38.29,43.73c-1.92,3.08-2,5.77-2.04,9.24-.03,2.43-.2,3.2.82,5.57h-.14c-.14-.31-.47-.66-.64-1.19-.66-2.11-.51-7.4.02-9.54.42-1.72,1.06-2.77,1.98-4.21v.14h0Z"/>
                <path class="cls-12" d="M66.81,34.63v.14c-.58-.42-2.3-1.31-2.99-1.49-.15-.04-.25-.14-.47-.14-.18,0-.69.21-.75.14-.04-.04.1-.33-.09-.41-.2-.09-1.44-.25-1.74-.27-1.75-.12-4.33.14-6.05.55v-.14c4.31-1.08,8.44-1.21,12.09,1.63h0Z"/>
                <path class="cls-15" d="M54.72,33v.14c-.85.2-3.86,1.22-4.53,1.65-.31.2-.19.48-.23.52-.03.03-.58-.14-.81-.14,1.94-1.06,3.39-1.63,5.57-2.17Z"/>
                <path class="cls-11" d="M70.61,40.34h-.14c-.15-.62-.57-1.3-.82-1.9-.11-.29-.18-.73-.27-.95,1.01.99.89,1.67,1.22,2.85Z"/>
                <path class="cls-3" d="M45.62,37.07c-1.73,1.04-4.15,2.73-5.49,4.22-.64.71-1.15,1.75-1.85,2.43v-.14c1.97-3.11,4.15-4.83,7.33-6.66v.14Z"/>
                <path class="cls-9" d="M37.06,58.54c.68,1.59,2.08,3.6,3.44,4.57.36.26,1.23.41,1.31,1-1.78-.76-3.92-3.22-4.78-4.93-.12-.25-.06-.53-.1-.64h.14Z"/>
                <path class="cls-15" d="M48.88,35.31c-1.02.56-2.3,1.19-3.26,1.77v-.14c.98-.56,2.06-1.23,3.13-1.63h.14Z"/>
                <path class="cls-3" d="M69.39,37.48c-.79-.78-1.59-2-2.58-2.72v-.14c.98.76,2.09,1.67,2.58,2.85Z"/>
                <path class="cls-13" d="M49.15,35.18c-.1.06-.2.1-.27.14h-.14c.14-.05.13-.13.41-.14Z"/>
                <path class="cls-1" d="M69.66,38.43c.24.6.66,1.28.82,1.9.2.81-.03,1.2-.01,1.84,0,.25.26.13.3.39.17,1.3-.14,2.49-.28,3.61-1.26,10.12-15.2,17.21-24.48,15.59-1.33-.23-4.64-1.21-5.45-2.29-1.77-2.36.05-4.05,2.13-5.17,2.62-1.4,5.2-2.29,7.9-3.92,4.93-2.96,9.9-6.32,14.05-10.26.38-.36.76-.84,1.21-1.1.94-.56,2.77-.87,3.82-.59h0Z"/>
                <path class="cls-1" d="M54.72,33.14c1.72-.41,4.3-.67,6.05-.55.31.02,1.54.18,1.74.27.19.08.05.37.09.41.06.07.57-.14.75-.14.22,0,.32.1.47.14.03.35.16.67.15,1.02s-.12,1.71-.21,1.98c-.34,1.09-3.93,3.09-5.01,3.68-3.16,1.73-6.56,3.06-9.69,4.84s-5.65,4.27-8.2,6.61c-1.25,1.14-2.44,2.38-3.67,3.54-.91.42-.64-1.52-.95-1.97.04-3.47.12-6.16,2.04-9.24.7-.68,1.21-1.72,1.85-2.43,1.34-1.49,3.76-3.18,5.49-4.22.96-.58,2.24-1.2,3.26-1.77.07-.04.17-.08.27-.14.23,0,.78.17.81.14.04-.04-.08-.32.23-.52.67-.43,3.68-1.45,4.53-1.65Z"/>
              </g>
              <g>
                <path class="cls-5" d="M7.32,14.93c-.05.78-.09,2.45.21,3.12.45,1,4.24,3.15,5.36,3.75,2.86,1.53,6,2.78,8.84,4.34,4.76,2.62,8.39,6.98,12.44,10.52.54.1.57-1.24.6-1.55.02-.26-.16-.55.27-.47.02.25.11.52.14.82.04.4.02.95,0,1.36-.14.04-.12.16-.14.27-.31,1.67-.95,3.6-1.9,5.02-4.5,6.73-13.37,5.74-19.83,3.26-.04-.01-.1.01-.14,0,.03-.33-.2-.35-.42-.46-3.81-1.88-7.67-5.47-9.76-9.19-1-1.77-2.34-5.12-2.45-7.13-.01-.25-.12-.55.28-.48.18,1.72.72,3.07,1.63,4.55,4.92,7.95,16.14,13.06,25.15,10.09.69-.23,2.59-1.07,3.02-1.6.24-.3.86-1.6.87-1.96.03-1.89-3.15-3.38-4.61-4.06-6.31-2.93-13.09-7.08-18.45-11.57-1.54-1.3-2.62-3.17-4.73-3.56l-2.21.11c.45-1.46,2.36-3.38,3.67-4.21.3-.19,1.51-.85,1.77-.95.09-.04.31.03.41,0h0Z"/>
                <path class="cls-14" d="M5.14,15.89c-1.31.83-3.22,2.75-3.67,4.21-.05.16-.22.31-.23.49-.02.16.15.54.1.59-.04.04-.37-.04-.41,0-.08.08.18.55.13.73s-.39.17-.41.31c-.04.26.28.95.15,1.45-.04.15-.35.09-.41.43-.06.3-.06,3.14,0,3.37.05.17.34,0,.41.64-.39-.08-.29.22-.28.48.11,2.02,1.45,5.36,2.45,7.13h-.14C-.77,29.43-1.85,20.12,5.14,15.75v.14Z"/>
                <path class="cls-11" d="M26.61,19.14v.14c-2.58-1.61-6.59-3.55-9.51-4.35v-.14c3.62.98,6.36,2.34,9.51,4.35Z"/>
                <path class="cls-9" d="M2.97,35.72c2.09,3.71,5.95,7.3,9.76,9.19.22.11.45.13.42.46-4.2-1.58-8.14-5.84-10.32-9.64,0,0,.14,0,.14,0Z"/>
                <path class="cls-12" d="M17.1,14.8v.14c-1.05-.29-2.45-.55-3.53-.68v-.14c1.54.13,2.09.29,3.53.68Z"/>
                <path class="cls-13" d="M6.91,14.8v.14c-.26.1-1.47.76-1.77.95v-.14c.67-.42.99-.65,1.77-.95Z"/>
                <path class="cls-1" d="M.8,28.11c-.07-.63-.37-.47-.41-.64-.06-.23-.06-3.08,0-3.37.07-.34.37-.28.41-.43.13-.5-.19-1.19-.15-1.45.02-.14.36-.12.41-.31s-.21-.65-.13-.73c.04-.04.37.04.41,0,.06-.06-.11-.44-.1-.59.02-.18.18-.33.23-.49l2.21-.11c2.11.39,3.18,2.26,4.73,3.56,5.36,4.5,12.14,8.64,18.45,11.57,1.46.68,4.65,2.17,4.61,4.06,0,.37-.62,1.66-.87,1.96-.43.53-2.33,1.37-3.02,1.6-9.01,2.97-20.23-2.13-25.15-10.09-.91-1.48-1.45-2.82-1.63-4.55Z"/>
                <path class="cls-1" d="M12.48,14.12c.27.02.76.1,1.09.14,1.08.13,2.49.39,3.53.68,2.92.8,6.93,2.74,9.51,4.35.44.27,1.38.91,1.77,1.22.46.37.75,1.11.81,1.16.12.1.55.1.89.33.74.51,1.82,1.98,2.51,2.72,1.18,2.25,2.35,4.63,2.44,7.27.03.98-.09,1.62,0,2.65-.43-.08-.24.22-.27.47-.03.32-.06,1.65-.6,1.55-4.06-3.54-7.69-7.9-12.44-10.52-2.84-1.56-5.98-2.81-8.84-4.34-1.11-.59-4.91-2.74-5.36-3.75-.3-.67-.26-2.34-.21-3.12.88-.31,2.24-.72,3.13-.82.56-.06,1.46-.04,2.04,0h0Z"/>
              </g>
            </g>
          </g>
        </g>
      </g>
      <g>
        <path class="cls-10" d="M115.63,72.65l-.07-.02.54-1.9-.02.63c.04-.21.15-.43.18-.63.02-.15-.12-.11-.1-.25.05-.34.82-3.01.95-3.16.1-.12.23.01.23-.15-.19-.21-.32-.39-.21-.69,3.69-12.88,7.05-25.86,10.88-38.69.55-1.86.92-3.6,1.75-5.35.91-1.92,1.95-2.94,3.38-4.42,1.77-1.83,3.45-3.46,4.28-6,.16-.5.82-3.24.99-3.4s1-.06.93.47c-.08.62-.58,2.31-.82,2.93-.12.31-.4.66-.5.98-.15.49-.2,1.37-.44,1.83-.03.06-.15.01-.21.09-.22.28-.31.66-.51.96-1.55,2.35-3.92,4-5.31,6.38-1.06,1.82-1.39,3.98-2.02,5.97l-.37.21.21.37c-.16.12-.29.26-.37.45-.66,1.59-1.09,3.99-1.6,5.72-.06.2-.28.36-.12.56h.12c-.18.18-.16.59-.22.71-.05.1-.38.14-.29.37.05.12.48.28.62.33l37.42,10.48.13-.2c.35-1.94,1.4-4.11,1.69-6.02.36-2.34,1.22-4.37,1.76-6.62.09-.38-.12-.85.38-1-.42-.49-.08-.89-.02-1.41.19-1.58-.53-3.73-.71-5.34-.36-3.25.57-6.13,1.51-9.23.16-.45.7-.22.99-.01l.05.22c-.17.38-.16.81-.25,1.19-.56,2.38-1.14,3.69-1.06,6.21.06,2.11.91,4.18.99,6.3.02.52.04,1.25-.07,1.77-1.09,5.32-3.41,10.7-4.36,16.09-3.4,11.77-6.49,23.57-9.86,35.35.07,1.12-.54,2.51-1.15,3.45-.98,1.54-3.62,2.85-5.47,2.47-.31-.06-.5-.21-.77-.29-9.27-2.64-18.58-5.16-27.82-7.9-1.82-.54-3.21-.52-4.44-2.2-.24-.33-.83-1.51-.92-1.89-.05-.2.03-.4-.04-.59-.05-.14-.2-.21-.24-.36-.04-.18.05-.39.03-.57-.1-1.12-.18-2.19.1-3.33.14-.55.41-1.08.55-1.67.02-.09.13-.26,0-.28l-.31,1.1ZM132.86,50.17c.16-.57.32-1.15.48-1.72v.84c-.19.55-.24,1.08-.13,1.64.25.11.89.31,1.11.09.34-.35.52-1.39.87-1.81.13.02.02.19,0,.28-.09.35-.49,1.31-.36,1.56.11.23.43.25.53.38.07.1,0,.28.09.38.16-.25.5-.15.66-.25.19-.11.34-.68.42-.91.47-1.45,1.18-3.68,1.45-5.14.08-.46-.12-.73-.6-.68l.11-.4-.14-.08c-.09.26-.37.28-.53.42-.12.11-.64.78-.76.95-.23.33-.74,1.41-1.06,1.58-.12.06-.34.01-.45.13-.1.11.02.61-.22.65.07-.17-.04-.37-.01-.52.17-.81.03-1.73,0-2.59-.02-.45.15-.97-.35-1.19l-.18.35.16-.59-.83.13c-.09.07-.39.95-.44,1.14-.5,1.71-.88,3.48-1.39,5.19-.02.29.46.41.33.86l.34-.45c.31.06.7.12.95-.11.03-.07-.03-.13-.02-.15ZM142.32,46.25c-1.04-.69-1.42-.69-1.86.52-.59,1.62-.88,3.48-1.44,5.13-.08.52.66.7.52,1.22.14.06.08-.18.16-.26s1,0,1.1-.3c.41-1.74,1.08-3.47,1.46-5.21.08-.37.16-.73.05-1.11ZM146.49,47.43c-.19-.15-1.15-.5-1.31-.34-.85,1.98-1.25,4.12-1.87,6.16.02.1.04.26.11.33.03.03.65.4.73.44.89.41,2.05.46,2.86.8.15.07,0,.2.17.21.41-.3,1.15.04,1.48-.45.22-.33-.18-.41-.26-.57-.06-.12.04-.31-.09-.47-.21-.26-.39-.06-.6-.1-.3-.05-.93-.36-1.29-.43l-1.05-.22c-.28-.11-.03-.31.03-.5.39-1.28.92-2.9,1.17-4.18.03-.17.07-.55-.08-.66ZM152.53,49.1l-1.17-.33c-.41.45-.44,1.11-.63,1.68-.06.17-.17.31-.22.48-.43,1.37-.74,2.78-1.13,4.16.25.58,1.36.99,1.6.24.17-.53.17-1.12.6-1.6l.2.57-.18.07.32.41.11-.13c.21.18.1.49.18.64.06.12.3.21.37.35s.02.34.14.48c.14.15.36.15.51.33.08.1.07.28.11.31.19.12.2-.06.31-.1.36-.15.83-.18.76-.69-.02-.13-.8-1.61-.93-1.82-.19-.31-.4-.61-.61-.95-.11-.19-.41-.31-.31-.57l3.4-1.97-.34-.69-1.07-.3c-.24.12-.46.33-.69.44s-.75.19-.97.3c-.18.09-.32.42-.55.46-.09-.53.24-.89.29-1.37,0-.03-.09-.39-.11-.4ZM160.32,64.1l-37.8-10.63c-.06.24-.19.44-.27.67-1.24,3.64-2.12,7.73-3.13,11.46s-2.91,8.12-2.12,11.68c.42,1.87,1.47,3.65,3.35,4.29,4.75,1.63,10.21,2.88,15.1,4.25,4,1.12,8.27,2.53,12.31,3.46,1.74.4,2.59.2,4.08-.7,1.02-.62,1.86-1.31,2.37-2.43.59-1.31.75-2.96,1.21-4.32,1.35-5.7,3.57-11.46,4.83-17.15.04-.19.06-.37.07-.57Z"/>
        <path class="cls-10" d="M135.13,5.35c-.64-1.1-.24-3.06.42-4.08.09-.13.9-.91,1.01-.95.13-.04.28,0,.41-.03.16-.05.24-.23.4-.27.24-.06.58.08.84.06l36.55,10.28c.67.24,1.41,1.18,1.49,1.88.23,2.02-1,4.92-3.43,4.45l-36.26-10.19c-.26-.1-.75-.34-.94-.52-.04-.04-.47-.58-.49-.62Z"/>
        <rect class="cls-10" x="119.62" y="86.64" width="29.68" height=".08" transform="translate(28.47 -33.15) rotate(15.7)"/>
      </g>
    </g>
  </g>
</svg>