<?xml version="1.0" encoding="UTF-8"?>
<svg id="_レイヤー_2" data-name="レイヤー 2" xmlns="http://www.w3.org/2000/svg" viewBox="0 0 104.78 105.08">
  <defs>
    <style>
      .cls-1 {
        fill: #f1f1f1;
      }

      .cls-2 {
        fill: #f6f6f6;
      }

      .cls-3 {
        fill: #f4f4f4;
      }

      .cls-4 {
        fill: #f3f2f3;
      }

      .cls-5 {
        fill: #de1f1b;
      }

      .cls-6 {
        fill: #f3f2f2;
      }

      .cls-7 {
        fill: #e21f1a;
      }

      .cls-8 {
        fill: #d91d1b;
      }
    </style>
  </defs>
  <g id="_レイヤー_1-2" data-name="レイヤー 1">
    <g>
      <path class="cls-4" d="M82.68,46.4c7.23-2.81,15.88.06,20.42,6.23,2.05,2.79,1.89,8.83,1.27,12.23-1.94,10.6-16.2,16.63-24.68,21.15l-12.95,18.94-51.45.14c-5.73-6.61-10.12-14.47-15.29-21.57v-46.09h81.93c.05,0,.75.69.75.75v8.22ZM80.19,39.92H1.99v42.1l14.28,20.59,49.13.09,12.54-18.46c8.61-5,21.13-9.25,23.92-19.92.94-3.59,1.6-7.02-.74-10.21-3.42-4.66-9.37-7.01-15.07-6.11-2.11.33-3.9,1.67-5.85,2.37v-10.46Z"/>
      <path class="cls-1" d="M42.16.13c3.54-.94-.37,4.74-.6,5.88-1.71,8.3,5.37,9.63,4.78,16.22-.16,1.73-4,8.48-5.69,8.19-3.24-.57,1.07-3.95,1.77-5.1,4.17-6.81-1.97-8.15-3.24-13.39-.64-2.64-.07-10.99,2.97-11.8Z"/>
      <path class="cls-2" d="M25.48.15c.65-.37,2.27-.03,2.41.66.11.55-1.96,3.41-2.35,4.61-2.64,8.14,4.69,9.77,4.66,15.72-.02,4.03-2.81,6.78-5.55,9.29l-1.73-1.73c1.03-1.22,2.54-2.23,3.4-3.57,4.36-6.81-3.63-9.31-3.92-15.89-.07-1.72,1.82-8.36,3.09-9.1Z"/>
      <path class="cls-3" d="M57.77,29.95c-3.57-.9-.77-4.48-.55-7.29.65-8.09-6.49-10.01-1.34-18.78.62-1.06,2.77-4.19,4.14-3.83,1.98,1.69-1.6,4.1-2.51,5.95-3.01,6.09,1.85,8.27,2.27,13.74.27,3.45-.88,7-2,10.21Z"/>
      <path class="cls-6" d="M79.69,74.3v-13.7c0-.67,1.83-3.41,2.51-3.97,4.19-3.43,13.45-2.91,13.47,3.97.01,8.16-9.45,11.77-15.98,13.7ZM82.18,70.81c4.7-1.96,11.28-3.98,11.01-10.22s-11.01-3.27-11.01.01v10.21Z"/>
      <path class="cls-5" d="M16.93,59.35v7.97c.49-.16,1.08.5,1.25.5h8.72v-8.47h2.49v18.93c-.65.16-2.49-.09-2.49-.75v-7.72h-9.96v8.47c-.65.16-2.49-.09-2.49-.75v-18.19h2.49Z"/>
      <path class="cls-7" d="M47.14,61.02c4.67,4.28,3.51,15.81-3.68,17.15-14.71,2.73-13.06-23.94,1.35-18.56.66.25,1.81.93,2.33,1.41ZM39.22,61.47c-4.99,1.28-5.73,13.33.99,14.71,10,2.06,10.5-17.65-.99-14.71Z"/>
      <path class="cls-8" d="M66.25,59.35c.07.07.07,1.92,0,1.99-.21.22-5.03-.15-5.98,0v16.94h-2.49v-16.94c-.95-.15-5.77.21-5.98,0-.07-.07-.1-1.99,0-1.99,1.95,0,13.94-.52,14.44,0Z"/>
    </g>
  </g>
</svg>