<?xml version="1.0" encoding="UTF-8"?>
<svg id="_レイヤー_2" data-name="レイヤー 2" xmlns="http://www.w3.org/2000/svg" viewBox="0 0 107 129.41">
  <defs>
    <style>
      .cls-1 {
        fill: #fff;
      }

      .cls-2 {
        fill: #2c76ba;
      }

      .cls-3 {
        fill: #327dc1;
      }

      .cls-4 {
        fill: #266fb2;
      }

      .cls-5 {
        fill: #f5f5f5;
      }
    </style>
  </defs>
  <g id="_レイヤー_1-2" data-name="レイヤー 1">
    <g>
      <rect class="cls-1" y="128.91" width="107" height=".5"/>
      <path class="cls-5" d="M51.4.02c9.94-.26,37.51,1.39,43.33,10.34.49.76.8,1.58,1.05,2.44l-16.23,97.48-.9.6-50.15-.15-.89-1.1L13.52,12.63c.88-6.73,16.29-10.19,21.88-11.11C40.56.66,46.16.16,51.4.02ZM49.9,2.52c-6.67.26-14.27,1.1-20.71,2.78-10.04,2.62-20.93,8.59-5.18,14.75s45.34,5.69,60.62.13c13.9-5.06,9.39-10.67-2.02-14.18-9.76-3-22.51-3.89-32.71-3.48ZM92.5,19.31c-18.3,8.79-43.51,9.56-63.1,4.83-4.37-1.06-8.49-2.64-12.39-4.84l13.02,89.15,47.42-.03,15.05-89.12Z"/>
      <g>
        <path class="cls-4" d="M73,52.69v2.49h-9v5.98h8.5v2.49h-8.5v5.98h8.75c.94,0,.94,2.49,0,2.49h-11.25v-18.68c0-.05.7-.75.75-.75h10.75Z"/>
        <path class="cls-2" d="M58,59.16c-1.45,1.37-3.79-3.4-5.85-3.88-10.21-2.34-10.1,14.65-1.91,14.76,4.29.06,4.98-3.76,5.61-3.91.47-.11,2.34-.45,2.09.7-.48,2.27-3.41,4.89-5.73,5.26-14.78,2.31-13.15-23.42,1.06-18.93,1.83.58,5.94,4.85,4.72,6Z"/>
        <rect class="cls-3" x="36" y="53.19" width="2" height="18.93"/>
      </g>
    </g>
  </g>
</svg>