<?xml version="1.0" encoding="UTF-8"?>
<svg id="_レイヤー_2" data-name="レイヤー 2" xmlns="http://www.w3.org/2000/svg" viewBox="0 0 179.66 270.61">
  <defs>
    <style>
      .cls-1 {
        fill: #fff;
      }
    </style>
  </defs>
  <g id="_レイヤー_1-2" data-name="レイヤー 1">
    <g>
      <path class="cls-1" d="M83.6,14.99l.75-1.25L84.85,0h3.71s-.21,14.98-.21,14.98h21.46v3.99h-19.46c2.75,10.52,9.57,20.79,19.96,24.97l-2.74,3.85c-10.34-4.74-16.82-14.88-20.46-25.33-2.77,8.52-6.88,16.31-14.27,21.68-.95.69-5.53,3.64-6.29,3.71-.81.07-3.58-2.81-3.15-3.41,10.7-4.09,18.07-14.3,19.96-25.47h-19.46v-3.99h19.71Z"/>
      <path d="M160.2,112.83l-19.46,150.27-21.19,1.52c-4.17.06-8.35-.13-12.52-.04-20.83.47-44.66.52-65.34-2.48-.79-.11-3.18-.44-3.53-.96L19.98,112.83h140.22ZM83.85,162.75c-2.22.31-5.26-.78-6.99.75v56.16h33.43v-5.99h-26.45v-50.92Z"/>
      <path class="cls-1" d="M83.85,162.75v50.92h26.45v5.99h-33.43v-56.16c1.73-1.53,4.77-.44,6.99-.75Z"/>
      <g>
        <path class="cls-1" d="M179.66,113.33l-13.47-.49-20.52,155.7-27.62,2.07h-41.96s-43.08-3.57-43.08-3.57c-1.33-9.87-2.84-19.76-4.04-29.65-4.18-34.39-7.93-68.9-11.99-103.33-.75-6.38-1.53-13.59-2.62-19.86-.07-.41-.2-1.26-.7-1.38-4.02-.71-9.16,1.08-12.91.52-.74-.11-.79.3-.74-.75.06-1.12,2.56-11.05,2.96-11.53l9.41-3.82,5.1-21.61c7.9-1.72,15.76-3.94,23.77-5.18,25.14-3.89,51.93-4.97,77.28-2.55,15.64,1.49,31.08,4.21,46.31,7.97l5.43,20.88,9.38,5.09v11.48ZM160.1,80.98c-30.15-7.04-61.51-10.12-92.46-7.58-15.21,1.25-30.65,3.83-45.41,7.48l-4.47,20.49c-.46.7-7.98,3.1-9.37,3.98-.48.3-.67.97-.88,1.49h166.17c.94-3.89-7.31-3.94-8.41-5.82l-5.17-20.04ZM160.2,112.83H19.98l18.18,148.3c.35.52,2.74.85,3.53.96,20.68,3,44.51,2.95,65.34,2.48,4.17-.09,8.35.1,12.52.04l21.19-1.52,19.46-150.27Z"/>
        <path d="M160.1,80.98l5.17,20.04c1.09,1.87,9.35,1.92,8.41,5.82H7.51c.22-.52.41-1.19.88-1.49,1.39-.88,8.91-3.27,9.37-3.98l4.47-20.49c14.77-3.66,30.2-6.24,45.41-7.48,30.95-2.54,62.31.54,92.46,7.58Z"/>
      </g>
    </g>
  </g>
</svg>