<?xml version="1.0" encoding="UTF-8"?>
<svg id="_レイヤー_2" data-name="レイヤー 2" xmlns="http://www.w3.org/2000/svg" viewBox="0 0 106.39 236.9">
  <defs>
    <style>
      .cls-1 {
        fill: #fff;
      }
    </style>
  </defs>
  <g id="_レイヤー_1-2" data-name="レイヤー 1">
    <g>
      <path class="cls-1" d="M56.36,32.71c-.21,1.37-1.16,2.19-2.48,2.5-.87.21-5.58.85-6.24.77-1.45-.17-1.68-2.28-1.75-3.52h6.98V.77c0-1.02,3.49-1.02,3.49,0v31.94Z"/>
      <path class="cls-1" d="M72.77,26.92l-2.93.53-6.98-17.43,2.23-.95c1.08.08,8.94,16.37,7.67,17.85Z"/>
      <path class="cls-1" d="M45.84,10.05c.88,1.28-4.47,15.36-6.74,16.88l-2.69-.97c3.1-5.1,5.29-10.57,6.52-16.43l2.91.51Z"/>
      <g>
        <path class="cls-1" d="M97.71,121.34l3.02,12.59c5.61,1.68,6.01,4.33,5.5,9.84l-8.01-.18-11.94,92.02c-1.56.08-3.17-.14-4.74,0-13.47,1.18-28.35,1.65-41.92,1.01-6.83-.32-13.81-1.6-20.65-2.04l-11.01-91.31-7.97.49,1.46-7.27,5.53-2.57,2.53-12.57c28.87-7.1,59.3-6.72,88.19,0ZM102.74,139.77c-.09-2.44-3.92-1.92-4.95-3.28-1.59-2.12-2.03-11.18-3.88-12.09-5.12-1.12-10.23-2.31-15.44-3.02-15.58-2.1-30.68-2.33-46.3-.56-6.61.75-13.15,2.19-19.64,3.56l-2.52,12.08-6.03,3.32h98.75ZM94.76,143.26H11.47l10.54,87.53.75.75c20.09,1.85,40.41,2.26,60.52.56l11.47-88.84Z"/>
        <path d="M94.76,143.26l-11.47,88.84c-20.12,1.69-40.44,1.28-60.52-.56l-.75-.75-10.54-87.53h83.29ZM56.6,172.21c-4.6-.57-10.23.42-14.96,0l-.75.75v37.18h4.99v-14.97h8.73l7.97,14.48,5.74.49-8.47-15.22c10.69-5.03,9.04-21.18-3.25-22.71Z"/>
        <path d="M102.74,139.77H3.99l6.03-3.32,2.52-12.08c6.49-1.36,13.03-2.81,19.64-3.56,15.62-1.77,30.72-1.54,46.3.56,5.21.7,10.31,1.9,15.44,3.02,1.84.92,2.29,9.97,3.88,12.09,1.02,1.37,4.86.84,4.95,3.28Z"/>
        <path class="cls-1" d="M56.6,172.21c12.29,1.52,13.95,17.68,3.25,22.71l8.47,15.22-5.74-.49-7.97-14.48h-8.73v14.97h-4.99v-37.18l.75-.75c4.73.42,10.36-.57,14.96,0ZM45.88,191.18h10.72c.66,0,3.56-1.62,4.17-2.31,2.31-2.64,2.12-8-.41-10.44-.91-.87-4.13-2.22-5.26-2.22h-9.23v14.97Z"/>
        <path d="M45.88,191.18v-14.97h9.23c1.13,0,4.35,1.35,5.26,2.22,2.53,2.43,2.72,7.8.41,10.44-.61.69-3.51,2.31-4.17,2.31h-10.72Z"/>
      </g>
    </g>
  </g>
</svg>