<?xml version="1.0" encoding="UTF-8"?>
<svg id="_レイヤー_2" data-name="レイヤー 2" xmlns="http://www.w3.org/2000/svg" viewBox="0 0 251.39 183.72">
  <defs>
    <style>
      .cls-1 {
        fill: #5b3b26;
      }

      .cls-2 {
        fill: #585553;
      }

      .cls-3 {
        fill: #665345;
      }

      .cls-4 {
        fill: #836c5c;
      }

      .cls-5 {
        fill: #756558;
      }

      .cls-6 {
        fill: #6c5f55;
      }

      .cls-7 {
        fill: #6c635a;
      }

      .cls-8 {
        fill: #46220f;
      }

      .cls-9 {
        fill: #60544b;
      }

      .cls-10 {
        fill: #7d5e4a;
      }

      .cls-11 {
        fill: #85624e;
      }

      .cls-12 {
        fill: #62351b;
      }

      .cls-13 {
        fill: #795e4b;
      }

      .cls-14 {
        fill: #856754;
      }

      .cls-15 {
        fill: #6b5646;
      }
    </style>
  </defs>
  <g id="_レイヤー_1-2" data-name="レイヤー 1">
    <g id="_コーヒ豆.psd" data-name="コーヒ豆.psd">
      <g>
        <path class="cls-7" d="M154.91,180.52l-.48-.96c20.57,6.82,39.91,2.6,58.02-8.44,6.57-4.01,12.01-9.16,17.79-14.12-16.47,21.11-49.77,32.75-75.33,23.51Z"/>
        <path class="cls-5" d="M249.44,93.18c4.45,15.9,1.19,36.62-8.64,49.91h-.48c4.15-9.06,8.79-17.27,9.59-27.62.07-.91.45-1.93-.95-1.65.49-3.93,1.58-8.15,1-12.75-.12-.94-1.03-.49-1.05-1.39-.06-2.25.76-3.62.05-6.5h.48Z"/>
        <path class="cls-6" d="M117.49,99.42h-.48c3.35-5.03,5.63-11.84,6.72-17.75.46-.13.46-.55.48-.96.08-1.45.13-3.37,0-4.8h.48c.59,9.95-1.63,15.46-7.2,23.51Z"/>
        <path class="cls-6" d="M230.24,157c2.87-3.67,6.11-7.83,9.12-11.52-.87,1.83-1.95,3.61-3.16,5.24-1.8,2.43-3.8,4.43-5.96,6.28Z"/>
        <path class="cls-14" d="M44.08.09v.48c-2.04-.13-5.21-.21-7.2,0V.09c2.23-.15,4.93-.08,7.2,0Z"/>
        <path class="cls-6" d="M240.8,143.09c-.26.35-.39,1.25-.96,1.92l-.46-.23c.17-.62.7-1.16.94-1.69h.48Z"/>
        <path class="cls-2" d="M124.69,66.31c-.76-.32-.76-2.08,0-2.4.03.8-.03,1.6,0,2.4Z"/>
        <g>
          <path class="cls-7" d="M46.96,110.94c22.83,8.75,54.17,12.27,70.05-11.52h.48c-11.97,17.32-30.54,22.09-50.96,18.58-6.49-1.12-14.09-3.46-19.57-7.06Z"/>
          <path class="cls-4" d="M115.09,38c5.91,6.27,9.31,16.93,9.6,25.91-.76.32-.76,2.08,0,2.4.11,3.12-.2,6.2,0,9.6h-.48c-.09-1.06-.4-2-.48-2.88-.33-3.61.11-5.9,0-9.35-.32-9.32-4.47-17.74-8.63-25.68Z"/>
          <path class="cls-14" d="M100.22,22.64c5.98,4.47,11.36,8.65,14.87,15.36-2.46-2.61-6.26-7.8-8.87-9.6-1.18-.81-2.7-.84-3.14-1.18-.22-.17-1.25-2.8-2.86-4.09v-.48Z"/>
          <path class="cls-10" d="M36.88.09v.48c-3.13.33-7.93,1.79-11.04,2.88-.36.12-1.11-.13-1.44,0v-.48C28.48,1.36,32.48.39,36.88.09Z"/>
          <path class="cls-11" d="M100.22,22.64v.48c-1.37-1.1-4.7-3.36-6.24-4.32v-.48c2.47,1.58,3.95,2.61,6.24,4.32Z"/>
          <path class="cls-6" d="M154.43,179.56l.48.96c-2.38-.86-5.15-1.2-6.72-3.36,1.81.78,4.36,1.78,6.24,2.4Z"/>
          <path class="cls-10" d="M47.92.57v.48c-1.14-.14-2.87-.42-3.84-.48V.09c1.55.05,2.73.39,3.84.48Z"/>
          <path class="cls-1" d="M123.73,81.66c.07-.39,0-.81.48-.96-.02.41-.02.83-.48.96Z"/>
          <g>
            <path class="cls-8" d="M236,73.51c3.51,2.54,6.31,6.85,9.12,9.6.32.77.56,2.35.96,3.36-3.73-1-10.19.11-13.5,2.09-1.58.94-2.92,2.62-4.26,3.9-14.67,13.93-32.22,25.81-49.64,36.25-9.55,5.72-18.65,8.86-27.92,13.83-7.38,3.95-13.78,9.95-7.54,18.27,2.87,3.82,14.56,7.28,19.26,8.09,32.81,5.72,82.05-19.33,86.49-55.07,1.4-.27,1.02.74.95,1.65-.79,10.34-5.44,18.56-9.59,27.62-.24.53-.76,1.07-.94,1.69l.46.23c-.15.18-.35.32-.48.48-3,3.69-6.25,7.84-9.12,11.52-5.78,4.96-11.22,10.11-17.79,14.12-18.11,11.04-37.44,15.26-58.02,8.44-1.87-.62-4.43-1.62-6.24-2.4-.13-.06-.34.06-.48,0-.3-2.06-3.37-2.6-4.64-3.52-4.8-3.46-9.74-10.54-12.15-16.16-3.59-8.37-2.98-11.11-2.88-19.67,1.1,1.6.12,8.44,3.35,6.97,4.35-4.11,8.55-8.46,12.96-12.5,9-8.26,18.33-17.3,28.95-23.35s23.06-11,34.23-17.11c3.82-2.09,16.49-9.18,17.7-13.01.3-.94.69-5.68.74-6.98s-.41-2.38-.52-3.6c2.42.65,8.5,3.79,10.56,5.28Z"/>
            <path class="cls-15" d="M135.24,105.18c-6.78,10.87-7.05,20.39-7.2,32.63-.1,8.57-.71,11.31,2.88,19.67h-.48c-.48-1.09-1.67-2.32-2.26-4.22-2.34-7.44-1.79-26.13.08-33.71,1.5-6.09,3.76-9.77,6.98-14.86v.48Z"/>
            <path class="cls-11" d="M236,73.03v.48c-2.06-1.48-8.14-4.63-10.56-5.28-.54-.15-.87-.49-1.66-.49-.65,0-2.44.73-2.66.49-.14-.15.35-1.17-.31-1.46-.72-.31-5.08-.89-6.15-.96-6.18-.42-15.31.5-21.37,1.94v-.48c15.24-3.81,29.81-4.28,42.7,5.76Z"/>
            <path class="cls-10" d="M193.3,67.27v.48c-3.01.71-13.62,4.31-16,5.84-1.1.71-.67,1.7-.8,1.84-.1.11-2.04-.5-2.87-.48,6.87-3.74,11.99-5.76,19.67-7.68Z"/>
            <path class="cls-14" d="M249.44,93.18h-.48c-.54-2.19-2.03-4.6-2.88-6.72-.4-1.01-.64-2.59-.96-3.36,3.57,3.51,3.15,5.91,4.32,10.08Z"/>
            <path class="cls-13" d="M161.15,81.66c-6.1,3.69-14.66,9.64-19.39,14.92-2.25,2.51-4.07,6.18-6.52,8.59v-.48c6.95-10.99,14.65-17.07,25.91-23.51v.48Z"/>
            <path class="cls-9" d="M130.92,157.48c2.41,5.62,7.35,12.7,12.15,16.16,1.27.91,4.34,1.46,4.64,3.52-6.28-2.67-13.85-11.39-16.9-17.42-.44-.88-.21-1.88-.37-2.25h.48Z"/>
            <path class="cls-10" d="M172.67,75.43c-3.62,1.99-8.13,4.19-11.52,6.24v-.48c3.46-1.98,7.28-4.36,11.04-5.76h.48Z"/>
            <path class="cls-13" d="M245.12,83.1c-2.8-2.75-5.6-7.06-9.12-9.6v-.48c3.46,2.69,7.37,5.91,9.12,10.08Z"/>
            <path class="cls-15" d="M173.63,74.95c-.36.2-.7.34-.96.48h-.48c.5-.19.46-.45,1.44-.48Z"/>
            <path class="cls-12" d="M246.08,86.46c.84,2.12,2.34,4.52,2.88,6.72.71,2.87-.12,4.25-.05,6.5.02.9.93.45,1.05,1.39.59,4.6-.51,8.81-1,12.75-4.44,35.74-53.68,60.79-86.49,55.07-4.69-.82-16.39-4.27-19.26-8.09-6.24-8.32.16-14.32,7.54-18.27,9.27-4.96,18.37-8.1,27.92-13.83,17.42-10.44,34.97-22.32,49.64-36.25,1.34-1.28,2.68-2.95,4.26-3.9,3.31-1.98,9.77-3.09,13.5-2.09Z"/>
            <path class="cls-12" d="M193.3,67.75c6.06-1.44,15.19-2.36,21.37-1.94,1.08.07,5.44.65,6.15.96.66.29.17,1.3.31,1.46.22.24,2.01-.49,2.66-.49.79,0,1.12.35,1.66.49.11,1.22.56,2.35.52,3.6s-.44,6.04-.74,6.98c-1.21,3.84-13.87,10.92-17.7,13.01-11.17,6.11-23.17,10.81-34.23,17.11s-19.95,15.09-28.95,23.35c-4.4,4.04-8.61,8.39-12.96,12.5-3.23,1.47-2.25-5.37-3.35-6.97.15-12.24.41-21.76,7.2-32.63,2.46-2.41,4.27-6.08,6.52-8.59,4.73-5.28,13.28-11.23,19.39-14.92,3.39-2.05,7.9-4.24,11.52-6.24.26-.14.6-.28.96-.48.83-.02,2.77.59,2.87.48.13-.14-.29-1.13.8-1.84,2.37-1.52,12.99-5.12,16-5.84Z"/>
          </g>
          <g>
            <path class="cls-8" d="M25.85,3.45c-.19,2.76-.32,8.67.73,11.02,1.59,3.54,14.99,11.13,18.92,13.23,10.11,5.41,21.18,9.81,31.22,15.32,16.81,9.24,29.63,24.66,43.96,37.16,1.91.34,2-4.37,2.11-5.49.08-.91-.57-1.94.95-1.67.08.88.39,1.82.48,2.88.13,1.42.08,3.35,0,4.8-.48.15-.41.57-.48.96-1.09,5.91-3.36,12.73-6.72,17.75-15.88,23.79-47.22,20.26-70.05,11.52-.14-.05-.34.05-.48,0,.09-1.16-.71-1.23-1.5-1.62-13.46-6.65-27.08-19.34-34.49-32.45-3.54-6.27-8.25-18.07-8.65-25.2-.05-.9-.41-1.96.98-1.68.64,6.09,2.54,10.83,5.77,16.06,17.38,28.1,57.01,46.12,88.85,35.63,2.45-.81,9.16-3.77,10.68-5.64.86-1.06,3.04-5.64,3.06-6.93.11-6.67-11.14-11.95-16.29-14.35-22.29-10.35-46.23-25-65.16-40.88-5.45-4.58-9.24-11.21-16.7-12.58l-7.81.38c1.59-5.16,8.33-11.94,12.95-14.88,1.05-.67,5.32-3,6.24-3.36.33-.13,1.08.12,1.44,0Z"/>
            <path class="cls-3" d="M18.17,6.81c-4.63,2.94-11.37,9.71-12.95,14.88-.17.56-.76,1.1-.82,1.73-.06.57.54,1.9.34,2.1-.14.14-1.29-.14-1.44,0-.3.29.64,1.95.45,2.59s-1.37.6-1.45,1.08c-.15.92.98,3.36.53,5.11-.14.53-1.23.33-1.46,1.52-.2,1.05-.22,11.09,0,11.92.16.61,1.21.03,1.45,2.26-1.38-.28-1.03.78-.98,1.68.4,7.12,5.11,18.92,8.65,25.2h-.48C-2.72,54.64-6.55,21.77,18.17,6.33v.48Z"/>
            <path class="cls-14" d="M93.98,18.32v.48c-9.11-5.68-23.27-12.53-33.59-15.36v-.48c12.77,3.46,22.45,8.26,33.59,15.36Z"/>
            <path class="cls-9" d="M10.49,76.87c7.4,13.11,21.02,25.8,34.49,32.45.79.39,1.58.46,1.5,1.62-14.85-5.59-28.77-20.64-36.47-34.07h.48Z"/>
            <path class="cls-11" d="M60.39,2.97v.48c-3.7-1.01-8.66-1.95-12.47-2.4v-.48c5.45.47,7.37,1.01,12.47,2.4Z"/>
            <path class="cls-15" d="M24.41,2.97v.48c-.92.36-5.19,2.69-6.24,3.36v-.48c2.38-1.49,3.5-2.28,6.24-3.36Z"/>
            <path class="cls-12" d="M2.81,49.99c-.24-2.23-1.29-1.65-1.45-2.26-.22-.82-.2-10.87,0-11.92.23-1.19,1.32-.99,1.46-1.52.45-1.76-.68-4.2-.53-5.11.08-.48,1.26-.44,1.45-1.08s-.75-2.29-.45-2.59c.15-.14,1.3.14,1.44,0,.2-.2-.4-1.54-.34-2.1.06-.63.65-1.17.82-1.73l7.81-.38c7.46,1.37,11.25,8,16.7,12.58,18.92,15.88,42.87,30.53,65.16,40.88,5.16,2.4,16.41,7.68,16.29,14.35-.02,1.29-2.2,5.87-3.06,6.93-1.52,1.87-8.23,4.83-10.68,5.64-31.84,10.49-71.47-7.52-88.85-35.63-3.23-5.23-5.13-9.97-5.77-16.06Z"/>
            <path class="cls-12" d="M44.08.57c.97.06,2.7.34,3.84.48,3.81.45,8.78,1.39,12.47,2.4,10.31,2.83,24.47,9.68,33.59,15.36,1.54.96,4.87,3.22,6.24,4.32,1.62,1.29,2.65,3.92,2.86,4.09.44.35,1.96.37,3.14,1.18,2.62,1.8,6.42,6.99,8.87,9.6,4.16,7.94,8.31,16.35,8.63,25.68.12,3.45-.32,5.74,0,9.35-1.52-.27-.86.76-.95,1.67-.1,1.12-.2,5.83-2.11,5.49-14.33-12.5-27.15-27.92-43.96-37.16-10.04-5.52-21.11-9.92-31.22-15.32-3.93-2.1-17.33-9.69-18.92-13.23-1.05-2.35-.92-8.27-.73-11.02,3.11-1.09,7.9-2.55,11.04-2.88,1.98-.21,5.16-.13,7.2,0Z"/>
          </g>
        </g>
      </g>
    </g>
  </g>
</svg>